<svg xmlns="http://www.w3.org/2000/svg" viewBox="0 0 480 64" width="480" height="64">
<g fill="#EBD8CB">
    <path d="M14 64V30h8v34z"/><rect x="4" y="18" width="28" height="14" rx="3"/>
    <path d="M58 64l4-46h6l4 46z"/><rect x="56" y="10" width="18" height="10" rx="2"/>
    <rect x="96" y="30" width="60" height="10" rx="2"/><path d="M96 40h60l-6 24H102z"/>
    <path d="M182 64V22a8 8 0 0 1 16 0v42z"/><path d="M178 18h24l-12-14z"/>
    <rect x="226" y="44" width="70" height="12" rx="2"/><rect x="254" y="47" width="14" height="6" rx="3" fill="#F6E7DD"/>
    <path d="M322 64l-6-30 10-2 6 32zM338 64l6-30-10-2-6 32z"/><circle cx="330" cy="26" r="8"/>
    <rect x="372" y="14" width="10" height="50" rx="3"/><rect x="364" y="8" width="26" height="12" rx="3"/>
    <path d="M420 64V36h44v28z"/><path d="M430 36v-8a4 4 0 0 1 4-4h16a4 4 0 0 1 4 4v8" fill="none" stroke="#EBD8CB" stroke-width="4"/>
  </g>
</svg>
