<svg xmlns="http://www.w3.org/2000/svg" viewBox="0 0 320 220" width="320" height="220">
<path d="M46 126C36 70 94 30 164 30c72 0 124 34 120 96-4 58-64 78-128 78-58 0-100-24-110-78z" fill="#F6E7DD"/>
  <ellipse cx="164" cy="184" rx="122" ry="7" fill="#EAD5C6"/>
  <rect x="82" y="44" width="150" height="88" rx="6" fill="#2A2420"/>
  <rect x="88" y="50" width="138" height="76" rx="3" fill="#36414D"/>
  <path d="M150 50h40l-52 76H98z" fill="#43505E"/>
  <rect x="204" y="132" width="8" height="16" rx="1" fill="#C9D0D8"/>
  <rect x="76" y="148" width="162" height="34" rx="4" fill="#D9A86C"/>
  <rect x="76" y="148" width="162" height="6" rx="3" fill="#C4935A"/>
  <rect x="86" y="160" width="68" height="16" rx="2" fill="#EBCB9C"/><rect x="160" y="160" width="68" height="16" rx="2" fill="#EBCB9C"/>
  <rect x="246" y="78" width="46" height="7" rx="2" fill="#C4935A"/>
  <rect x="252" y="56" width="8" height="22" fill="#2F6F73"/><rect x="261" y="60" width="7" height="18" fill="#A3401B"/><rect x="269" y="58" width="6" height="20" fill="#F2B632"/>
  <path d="M286 78c0-10-6-16-6-16s-6 6-6 16z" fill="#8FA476"/>
  
  <g transform="translate(244 104) rotate(-2)">
    <rect x="0" y="-6" width="50" height="12" rx="2" fill="#F2B632"/>
    <rect x="16" y="-3.5" width="18" height="7" rx="3.5" fill="#CFE3E1"/>
    <circle cx="25" cy="0" r="2.2" fill="#2F6F73"/>
  </g>
  <path d="M244 104l-4 0" stroke="#F2B632" stroke-width="0"/>
  
  <g transform="translate(54 160) scale(0.9)">
    <rect x="-6" y="-26" width="16" height="8" rx="2" fill="#5B6675"/>
    <rect x="-22" y="-24" width="16" height="4" fill="#B8C1CB"/>
    <rect x="8" y="-32" width="42" height="20" rx="8" fill="#F2B632"/>
    <rect x="22" y="-14" width="14" height="30" rx="4" fill="#2A2420"/>
    <rect x="16" y="14" width="28" height="12" rx="3" fill="#D99A1E"/>
    <circle cx="40" cy="-22" r="3" fill="#2A2420"/>
  </g>
  <g fill="#B8C1CB"><circle cx="40" cy="190" r="2"/><circle cx="34" cy="186" r="1.6"/></g>
</svg>
